Coordinates
version=1
nRows=10
nColumns=22
inDegrees=yes

Units are S.I. units (second, meters, Newtons, ...)
If the header above contains a line with 'inDegrees', this indicates whether rotational values are in degrees (yes) or radians (no).

endheader
time	pelvis_tilt	pelvis_list	pelvis_rotation	pelvis_tx	pelvis_ty	pelvis_tz	hip_flexion_r	hip_adduction_r	hip_rotation_r	knee_angle_r	ankle_angle_r	subtalar_angle_r	hip_flexion_l	hip_adduction_l	hip_rotation_l	knee_angle_l	ankle_angle_l	subtalar_angle_l	lumbar_extension	lumbar_bending	lumbar_rotation
      0.01000000	     -3.95691462	     -4.96699548	     -0.79451546	      0.06689456	      1.01605816	      1.34849270	      3.94285265	      0.64588065	     -5.83452594	    -11.03255750	      8.40449318	      4.48356591	      0.51066715	     -9.46312859	    -13.55400282	     -8.87684720	     10.77486510	      2.30416318	     -0.79066699	      2.53037180	     -1.25117983
      0.02000000	     -3.95814112	     -4.96857497	     -0.79787194	      0.06691300	      1.01605744	      1.34855273	      3.95116681	      0.65049666	     -5.82908459	    -11.04818354	      8.41799835	      4.48277663	      0.49272230	     -9.46860111	    -13.55777685	     -8.84727219	     10.76673146	      2.31492723	     -0.78804200	      2.54829403	     -1.25508218
      0.03000000	     -3.95212703	     -4.96920060	     -0.80519398	      0.06694442	      1.01606876	      1.34863895	      3.95173907	      0.65571174	     -5.81689723	    -11.06456207	      8.44027664	      4.48256633	      0.46451893	     -9.47497682	    -13.56417440	     -8.81794518	     10.75133288	      2.36552772	     -0.79302135	      2.56467462	     -1.23503627
      0.04000000	     -3.95086222	     -4.96638782	     -0.80244968	      0.06697320	      1.01607161	      1.34871993	      3.95996289	      0.65645788	     -5.80781366	    -11.08759945	      8.44280233	      4.48212633	      0.44686247	     -9.47903800	    -13.56953550	     -8.79248808	     10.75434539	      2.38222246	     -0.79328810	      2.58064716	     -1.24534325
      0.05000000	     -3.94657117	     -4.96877206	     -0.80426488	      0.06701150	      1.01607597	      1.34882480	      3.97136605	      0.66360081	     -5.79453359	    -11.12390372	      8.45850706	      4.47994052	      0.42032557	     -9.48896195	    -13.56677369	     -8.76062211	     10.75119539	      2.41563654	     -0.79779144	      2.60305769	     -1.23824356
      0.06000000	     -3.94028767	     -4.96999412	     -0.80291348	      0.06704587	      1.01608237	      1.34894397	      3.98350761	      0.67086453	     -5.77334951	    -11.16611444	      8.47763312	      4.47753634	      0.39515196	     -9.49906250	    -13.56428039	     -8.73287168	     10.74838209	      2.45459494	     -0.80780374	      2.62337211	     -1.22986535
      0.07000000	     -3.92679933	     -4.96803396	     -0.81945427	      0.06711550	      1.01609565	      1.34910254	      3.98722868	      0.67563812	     -5.73581305	    -11.20956001	      8.52948515	      4.47426638	      0.35534037	     -9.50770760	    -13.57567892	     -8.70656363	     10.74786763	      2.57432860	     -0.82169939	      2.64037836	     -1.18428993
      0.08000000	     -3.91994745	     -4.96591651	     -0.80908741	      0.06715200	      1.01609834	      1.34924466	      4.00960403	      0.67958262	     -5.71099734	    -11.27345659	      8.53063650	      4.47399014	      0.33538164	     -9.51679701	    -13.57490560	     -8.68432122	     10.75134118	      2.59451183	     -0.83591212	      2.65574896	     -1.20114840
      0.09000000	     -3.91044885	     -4.96959613	     -0.80860792	      0.06718697	      1.01609960	      1.34941638	      4.04485556	      0.68985844	     -5.68359046	    -11.36751156	      8.55791000	      4.47013769	      0.30737002	     -9.53179778	    -13.56340192	     -8.65777952	     10.75043507	      2.62639385	     -0.85559344	      2.67905144	     -1.19232004
      0.10000000	     -3.90840048	     -4.96663816	     -0.82992181	      0.06723971	      1.01608121	      1.34964118	      4.09710924	      0.69459566	     -5.65067216	    -11.47789519	      8.64358985	      4.46009179	      0.28158294	     -9.54171639	    -13.57529660	     -8.63348356	     10.75005694	      2.70926220	     -0.86481715	      2.69336916	     -1.13897185
